<svg xmlns="http://www.w3.org/2000/svg" width="256" height="256" viewBox="0 0 100 100"><rect width="100" height="100" rx="50" fill="#7d6ee7"></rect><path d="M11.14 56.73L11.14 56.73Q11.03 56.84 10.70 56.93Q10.38 57.03 9.99 57.03L9.99 57.03Q9.55 57.03 9.21 56.90Q8.86 56.77 8.75 56.52L8.75 56.52Q8.45 55.92 8.05 54.98Q7.65 54.04 7.20 52.88Q6.75 51.71 6.28 50.43Q5.81 49.14 5.37 47.87Q4.93 46.61 4.54 45.42Q4.15 44.24 3.87 43.30L3.87 43.30Q4.01 43.11 4.29 42.95Q4.56 42.79 4.91 42.79L4.91 42.79Q5.35 42.79 5.55 43.00Q5.76 43.20 5.90 43.62L5.90 43.62Q6.93 46.63 7.88 49.44Q8.82 52.24 9.95 55.14L9.95 55.14L10.04 55.14Q10.54 53.83 11.08 52.35Q11.62 50.86 12.14 49.29Q12.66 47.71 13.15 46.10Q13.65 44.49 14.04 42.95L14.04 42.95Q14.34 42.79 14.82 42.79L14.82 42.79Q15.24 42.79 15.49 43.00Q15.74 43.20 15.74 43.62L15.74 43.62Q15.74 43.96 15.48 44.92Q15.21 45.87 14.80 47.14Q14.38 48.40 13.87 49.85Q13.35 51.30 12.84 52.63Q12.34 53.97 11.88 55.07Q11.42 56.18 11.14 56.73ZM23.22 47.53L23.22 47.53Q22.43 47.53 21.77 47.79Q21.10 48.06 20.62 48.57Q20.13 49.09 19.86 49.86Q19.58 50.63 19.58 51.62L19.58 51.62Q19.58 53.60 20.57 54.65Q21.56 55.69 23.22 55.69L23.22 55.69Q24.18 55.69 24.83 55.43Q25.47 55.16 25.98 54.82L25.98 54.82Q26.23 54.96 26.39 55.16Q26.55 55.37 26.55 55.67L26.55 55.67Q26.55 55.99 26.30 56.27Q26.05 56.54 25.60 56.75Q25.15 56.96 24.54 57.08Q23.93 57.21 23.22 57.21L23.22 57.21Q22.02 57.21 21.01 56.87Q20.00 56.52 19.26 55.83Q18.52 55.14 18.11 54.09Q17.70 53.05 17.70 51.62L17.70 51.62Q17.70 50.22 18.13 49.17Q18.57 48.13 19.31 47.41Q20.04 46.70 21.04 46.34Q22.04 45.99 23.17 45.99L23.17 45.99Q23.88 45.99 24.49 46.11Q25.10 46.24 25.54 46.47Q25.98 46.70 26.22 46.99Q26.46 47.27 26.46 47.57L26.46 47.57Q26.46 47.85 26.30 48.06Q26.14 48.26 25.88 48.38L25.88 48.38Q25.38 48.03 24.78 47.78Q24.18 47.53 23.22 47.53ZM39.16 51.60L39.16 51.60Q39.16 52.89 38.79 53.92Q38.42 54.96 37.74 55.69Q37.06 56.43 36.10 56.82Q35.13 57.21 33.93 57.21L33.93 57.21Q32.74 57.21 31.77 56.82Q30.81 56.43 30.12 55.69Q29.43 54.96 29.06 53.92Q28.69 52.89 28.69 51.60L28.69 51.60Q28.69 50.31 29.07 49.28Q29.45 48.24 30.14 47.50Q30.83 46.77 31.80 46.38Q32.76 45.99 33.93 45.99L33.93 45.99Q35.11 45.99 36.07 46.38Q37.04 46.77 37.72 47.50Q38.40 48.24 38.78 49.28Q39.16 50.31 39.16 51.60ZM33.93 47.50L33.93 47.50Q32.37 47.50 31.47 48.59Q30.58 49.67 30.58 51.60L30.58 51.60Q30.58 53.55 31.46 54.62Q32.35 55.69 33.93 55.69L33.93 55.69Q35.52 55.69 36.40 54.61Q37.27 53.53 37.27 51.60L37.27 51.60Q37.27 49.67 36.38 48.59Q35.50 47.50 33.93 47.50ZM49.37 49.99L49.37 49.99Q49.37 48.70 48.64 48.10Q47.92 47.50 46.70 47.50L46.70 47.50Q45.78 47.50 45.07 47.73Q44.35 47.96 43.85 48.26L43.85 48.26L43.85 56.87Q43.73 56.91 43.50 56.97Q43.27 57.03 43.00 57.03L43.00 57.03Q42.01 57.03 42.01 56.20L42.01 56.20L42.01 48.36Q42.01 47.87 42.20 47.56Q42.40 47.25 42.88 46.95L42.88 46.95Q43.48 46.58 44.47 46.29Q45.46 45.99 46.70 45.99L46.70 45.99Q48.79 45.99 50 46.93Q51.21 47.87 51.21 49.90L51.21 49.90L51.21 56.87Q51.09 56.91 50.85 56.97Q50.61 57.03 50.36 57.03L50.36 57.03Q49.37 57.03 49.37 56.20L49.37 56.20L49.37 49.99ZM62.02 49.99L62.02 49.99Q62.02 48.70 61.29 48.10Q60.57 47.50 59.35 47.50L59.35 47.50Q58.43 47.50 57.72 47.73Q57.00 47.96 56.50 48.26L56.50 48.26L56.50 56.87Q56.38 56.91 56.15 56.97Q55.92 57.03 55.65 57.03L55.65 57.03Q54.66 57.03 54.66 56.20L54.66 56.20L54.66 48.36Q54.66 47.87 54.85 47.56Q55.05 47.25 55.53 46.95L55.53 46.95Q56.13 46.58 57.12 46.29Q58.11 45.99 59.35 45.99L59.35 45.99Q61.44 45.99 62.65 46.93Q63.86 47.87 63.86 49.90L63.86 49.90L63.86 56.87Q63.74 56.91 63.50 56.97Q63.26 57.03 63.01 57.03L63.01 57.03Q62.02 57.03 62.02 56.20L62.02 56.20L62.02 49.99ZM75.70 51.69L68.62 52.68Q69.24 55.69 72.57 55.69L72.57 55.69Q73.54 55.69 74.32 55.37Q75.10 55.05 75.56 54.68L75.56 54.68Q76.12 55.00 76.12 55.55L76.12 55.55Q76.12 55.88 75.83 56.18Q75.54 56.47 75.05 56.70Q74.55 56.93 73.90 57.07Q73.24 57.21 72.48 57.21L72.48 57.21Q69.81 57.21 68.26 55.76Q66.71 54.31 66.71 51.53L66.71 51.53Q66.71 50.22 67.09 49.19Q67.47 48.17 68.15 47.46Q68.83 46.75 69.77 46.37Q70.71 45.99 71.82 45.99L71.82 45.99Q72.85 45.99 73.72 46.33Q74.60 46.68 75.23 47.31Q75.86 47.94 76.22 48.80Q76.58 49.67 76.58 50.70L76.58 50.70Q76.58 51.21 76.35 51.43Q76.12 51.64 75.70 51.69L75.70 51.69ZM71.79 47.48L71.79 47.48Q70.39 47.48 69.47 48.46Q68.55 49.44 68.50 51.25L68.50 51.25L74.83 50.38Q74.71 49.11 73.94 48.30Q73.17 47.48 71.79 47.48ZM84.17 47.53L84.17 47.53Q83.38 47.53 82.72 47.79Q82.05 48.06 81.57 48.57Q81.08 49.09 80.81 49.86Q80.53 50.63 80.53 51.62L80.53 51.62Q80.53 53.60 81.52 54.65Q82.51 55.69 84.17 55.69L84.17 55.69Q85.13 55.69 85.78 55.43Q86.42 55.16 86.93 54.82L86.93 54.82Q87.18 54.96 87.34 55.16Q87.50 55.37 87.50 55.67L87.50 55.67Q87.50 55.99 87.25 56.27Q87.00 56.54 86.55 56.75Q86.10 56.96 85.49 57.08Q84.88 57.21 84.17 57.21L84.17 57.21Q82.97 57.21 81.96 56.87Q80.95 56.52 80.21 55.83Q79.47 55.14 79.06 54.09Q78.65 53.05 78.65 51.62L78.65 51.62Q78.65 50.22 79.08 49.17Q79.52 48.13 80.26 47.41Q80.99 46.70 81.99 46.34Q82.99 45.99 84.12 45.99L84.12 45.99Q84.83 45.99 85.44 46.11Q86.05 46.24 86.49 46.47Q86.93 46.70 87.17 46.99Q87.41 47.27 87.41 47.57L87.41 47.57Q87.41 47.85 87.25 48.06Q87.09 48.26 86.83 48.38L86.83 48.38Q86.33 48.03 85.73 47.78Q85.13 47.53 84.17 47.53ZM93.87 57.21L93.87 57.21Q92.26 57.21 91.26 56.50Q90.26 55.78 90.26 54.13L90.26 54.13L90.26 43.20Q90.38 43.16 90.62 43.10Q90.86 43.04 91.14 43.04L91.14 43.04Q92.10 43.04 92.10 43.87L92.10 43.87L92.10 46.52L95.87 46.52Q95.94 46.63 96.01 46.83Q96.08 47.02 96.08 47.25L96.08 47.25Q96.08 48.03 95.39 48.03L95.39 48.03L92.10 48.03L92.10 54.01Q92.10 54.93 92.62 55.31Q93.14 55.69 94.08 55.69L94.08 55.69Q94.47 55.69 94.95 55.55Q95.44 55.42 95.76 55.23L95.76 55.23Q95.90 55.37 96.01 55.58Q96.13 55.78 96.13 56.06L96.13 56.06Q96.13 56.57 95.53 56.89Q94.93 57.21 93.87 57.21Z" fill="#fff"></path></svg>