<?xml version="1.0"?>
<svg xmlns="http://www.w3.org/2000/svg" xmlns:xlink="http://www.w3.org/1999/xlink" xmlns:svgjs="http://svgjs.com/svgjs" version="1.1" width="512" height="512" x="0" y="0" viewBox="0 0 512 512" style="enable-background:new 0 0 512 512" xml:space="preserve" class=""><rect width="512" height="512" rx="20" ry="20" fill="#bac8d3" shape="rounded" transform="matrix(0.84,0,0,0.84,40.96000000000001,40.96000000000001)"/><g transform="matrix(0.7799999999999999,0,0,0.7799999999999999,56.31999999999999,56.31999999999999)"><g xmlns="http://www.w3.org/2000/svg"><g><g><path d="m331.17 71.517c-.944 0-1.903-.174-2.835-.542-23.199-9.157-47.709-13.8-72.85-13.8-24.834 0-49.046 4.529-71.965 13.462-3.974 1.55-8.455-.416-10.005-4.393-1.55-3.976.417-8.455 4.393-10.005 24.714-9.633 50.815-14.518 77.576-14.518 27.092 0 53.51 5.006 78.524 14.88 3.969 1.566 5.917 6.054 4.35 10.024-1.198 3.038-4.108 4.892-7.188 4.892z" fill="#a79ba7" data-original="#a79ba7" style="" class=""/></g><g><path d="m255.485 469.247c-26.654 0-52.654-4.845-77.277-14.4-3.978-1.544-5.952-6.02-4.408-9.999 1.544-3.978 6.019-5.951 9.998-4.408 22.833 8.861 46.952 13.354 71.687 13.354 25.04 0 49.458-4.607 72.573-13.692 3.968-1.56 8.456.393 10.017 4.365 1.56 3.971-.393 8.456-4.365 10.017-24.923 9.797-51.242 14.763-78.225 14.763z" fill="#a79ba7" data-original="#a79ba7" style="" class=""/></g><g><path d="m63.791 338.901c-3.079 0-5.989-1.854-7.189-4.891-9.874-25.014-14.88-51.433-14.88-78.525 0-26.762 4.884-52.862 14.518-77.576 1.549-3.975 6.03-5.943 10.005-4.393 3.976 1.549 5.943 6.029 4.393 10.005-8.933 22.919-13.462 47.131-13.462 71.965 0 25.141 4.643 49.651 13.8 72.851 1.567 3.969-.381 8.457-4.35 10.024-.931.366-1.892.54-2.835.54z" fill="#a79ba7" data-original="#a79ba7" style="" class=""/></g><g><path d="m447.293 338.612c-.941 0-1.895-.173-2.824-.537-3.972-1.561-5.926-6.046-4.365-10.017 9.085-23.117 13.691-47.534 13.691-72.573 0-24.735-4.493-48.854-13.353-71.687-1.543-3.978.43-8.455 4.408-9.998 3.977-1.543 8.455.431 9.998 4.408 9.554 24.622 14.399 50.622 14.399 77.277 0 26.982-4.967 53.3-14.762 78.225-1.195 3.043-4.109 4.902-7.192 4.902z" fill="#a79ba7" data-original="#a79ba7" style="" class=""/></g></g><g fill="#5f99d7"><path d="m292.992 167.891c13.127 18.648 21.778 47.097 22.96 79.868h34.51c-2.894-35.901-25.772-66.243-57.47-79.868z" fill="#5f99d7" data-original="#5f99d7" style="" class=""/><path d="m247.759 161.761c-8.297 3.31-16.319 11.795-22.794 24.408-8.507 16.573-13.555 38.214-14.471 61.59h37.265z" fill="#5f99d7" data-original="#5f99d7" style="" class=""/><path d="m315.952 263.211c-1.181 32.77-9.832 61.219-22.96 79.868 31.698-13.625 54.576-43.967 57.47-79.868z" fill="#5f99d7" data-original="#5f99d7" style="" class=""/><path d="m263.211 349.209c8.297-3.31 16.319-11.795 22.794-24.408 8.508-16.573 13.555-38.214 14.471-61.59h-37.265z" fill="#5f99d7" data-original="#5f99d7" style="" class=""/><path d="m286.005 186.169c-6.474-12.613-14.497-21.097-22.794-24.408v85.998h37.265c-.916-23.377-5.963-45.018-14.471-61.59z" fill="#5f99d7" data-original="#5f99d7" style="" class=""/><path d="m217.978 343.079c-13.127-18.648-21.778-47.097-22.96-79.868h-34.51c2.894 35.9 25.771 66.243 57.47 79.868z" fill="#5f99d7" data-original="#5f99d7" style="" class=""/><path d="m247.759 349.209v-85.998h-37.265c.916 23.376 5.964 45.017 14.471 61.59 6.474 12.613 14.497 21.098 22.794 24.408z" fill="#5f99d7" data-original="#5f99d7" style="" class=""/><path d="m217.978 167.891c-31.698 13.625-54.576 43.967-57.47 79.868h34.51c1.181-32.771 9.832-61.22 22.96-79.868z" fill="#5f99d7" data-original="#5f99d7" style="" class=""/></g><g><circle cx="92.716" cy="92.716" fill="#f5f8f9" r="92.716" data-original="#f5f8f9" style="" class=""/><circle cx="92.716" cy="75.712" fill="#fff3de" r="35.039" data-original="#fff3de" style="" class=""/><path d="m113.32 104.048c-5.79 4.224-12.908 6.706-20.604 6.706-19.347 0-35.036-15.69-35.036-35.047 0-19.347 15.69-35.036 35.036-35.036 7.695 0 14.814 2.483 20.604 6.706-8.746 6.356-14.433 16.679-14.433 28.33s5.687 21.975 14.433 28.341z" fill="#ffe5c2" data-original="#ffe5c2" style="" class=""/><path d="m145.668 163.696v5.13c-15.01 10.477-33.265 16.606-52.951 16.606s-37.942-6.13-52.951-16.606v-5.13c0-29.237 23.704-52.941 52.951-52.941 14.629 0 27.856 5.924 37.447 15.504 9.58 9.581 15.504 22.819 15.504 37.437z" fill="#8ac9fe" data-original="#8ac9fe" style="" class=""/><path d="m95.869 171.833c6.979 4.278 14.564 7.659 22.602 9.974-8.18 2.359-16.813 3.626-25.755 3.626-19.687 0-37.942-6.13-52.951-16.607v-5.13c0-29.237 23.704-52.941 52.951-52.941 9.354 0 18.131 2.421 25.755 6.676-16.225 9.045-27.197 26.373-27.197 46.265 0 3.329 1.756 6.396 4.595 8.137z" fill="#60b7ff" data-original="#60b7ff" style="" class=""/></g><g><circle cx="419.284" cy="419.284" fill="#f5f8f9" r="92.716" data-original="#f5f8f9" style="" class=""/><circle cx="419.284" cy="402.279" fill="#ffeee6" r="35.039" data-original="#ffeee6" style="" class=""/><path d="m439.887 430.616c-5.79 4.224-12.908 6.706-20.604 6.706-19.347 0-35.036-15.69-35.036-35.047 0-19.347 15.69-35.036 35.036-35.036 7.695 0 14.814 2.483 20.604 6.707-8.746 6.356-14.433 16.679-14.433 28.33s5.687 21.973 14.433 28.34z" fill="#ffdfcf" data-original="#ffdfcf" style="" class=""/><path d="m472.235 490.263v5.13c-15.01 10.477-33.265 16.607-52.951 16.607-19.687 0-37.942-6.13-52.951-16.606v-5.13c0-29.237 23.704-52.941 52.951-52.941 14.629 0 27.856 5.924 37.447 15.504 9.58 9.58 15.504 22.818 15.504 37.436z" fill="#c3be9f" data-original="#fee97d" style="" class=""/><path d="m422.436 498.4c6.979 4.278 14.564 7.659 22.602 9.974-8.18 2.359-16.813 3.626-25.755 3.626-19.687 0-37.942-6.13-52.951-16.607v-5.13c0-29.237 23.704-52.941 52.951-52.941 9.354 0 18.131 2.421 25.755 6.676-16.225 9.045-27.197 26.373-27.197 46.265 0 3.33 1.756 6.397 4.595 8.137z" fill="#bfb78a" data-original="#fee45a" style="" class=""/></g><g><circle cx="92.716" cy="419.284" fill="#f5f8f9" r="92.716" data-original="#f5f8f9" style="" class=""/><path d="m145.668 490.263v5.13c-15.01 10.477-33.265 16.607-52.952 16.607s-37.942-6.13-52.951-16.606v-5.13c0-29.237 23.704-52.941 52.951-52.941 14.629 0 27.856 5.924 37.447 15.504 9.581 9.58 15.505 22.818 15.505 37.436z" fill="#ade194" data-original="#ade194" style="" class=""/><path d="m95.869 498.4c6.979 4.278 14.564 7.659 22.602 9.974-8.18 2.359-16.813 3.626-25.755 3.626-19.687 0-37.942-6.13-52.951-16.607v-5.13c0-29.237 23.704-52.941 52.951-52.941 9.354 0 18.131 2.421 25.755 6.676-16.225 9.045-27.197 26.373-27.197 46.265 0 3.33 1.756 6.397 4.595 8.137z" fill="#c5bf99" data-original="#97da7b" style="" class=""/><circle cx="92.716" cy="402.279" fill="#f1b0a2" r="35.039" data-original="#f1b0a2" style="" class=""/><path d="m113.32 430.616c-5.79 4.224-12.908 6.706-20.604 6.706-19.347 0-35.036-15.69-35.036-35.047 0-19.347 15.69-35.036 35.036-35.036 7.695 0 14.814 2.483 20.604 6.707-8.746 6.356-14.433 16.679-14.433 28.33s5.687 21.973 14.433 28.34z" fill="#eb9c8d" data-original="#eb9c8d" style="" class=""/></g><g><circle cx="419.284" cy="92.716" fill="#f5f8f9" r="92.716" data-original="#f5f8f9" style="" class=""/><circle cx="419.284" cy="75.712" fill="#f1b0a2" r="35.039" data-original="#f1b0a2" style="" class=""/><path d="m439.887 104.048c-5.79 4.224-12.908 6.706-20.604 6.706-19.347 0-35.036-15.69-35.036-35.047 0-19.347 15.69-35.036 35.036-35.036 7.695 0 14.814 2.483 20.604 6.706-8.746 6.356-14.433 16.679-14.433 28.33s5.687 21.975 14.433 28.341z" fill="#eb9c8d" data-original="#eb9c8d" style="" class=""/><path d="m472.235 163.696v5.13c-15.01 10.477-33.265 16.606-52.951 16.606-19.687 0-37.942-6.13-52.951-16.606v-5.13c0-29.237 23.704-52.941 52.951-52.941 14.629 0 27.856 5.924 37.447 15.504 9.58 9.581 15.504 22.819 15.504 37.437z" fill="#f07281" data-original="#f07281" style="" class=""/><path d="m422.436 171.833c6.979 4.278 14.564 7.659 22.602 9.974-8.18 2.359-16.813 3.626-25.755 3.626-19.687 0-37.942-6.13-52.951-16.607v-5.13c0-29.237 23.704-52.941 52.951-52.941 9.354 0 18.131 2.421 25.755 6.676-16.225 9.045-27.197 26.373-27.197 46.265 0 3.329 1.756 6.396 4.595 8.137z" fill="#eb5569" data-original="#eb5569" style="" class=""/></g></g></g></svg>
